<svg width="49" height="72" viewBox="0 0 49 72" fill="none" xmlns="http://www.w3.org/2000/svg">
<path d="M35.723 28.8281C34.6978 28.163 32.8387 27.7664 30.7462 27.7664C28.6552 27.7664 26.7947 28.163 25.7709 28.8281C25.2633 29.1572 25.1198 29.835 25.4489 30.3413C25.778 30.8475 26.4558 30.9923 26.9634 30.6633C27.5077 30.3103 28.8886 29.9545 30.7477 29.9545C32.6067 29.9545 33.9877 30.3103 34.5319 30.6633C34.7161 30.7828 34.9228 30.8405 35.1267 30.8405C35.4853 30.8405 35.8355 30.6647 36.045 30.3427C36.3741 29.835 36.2292 29.1572 35.723 28.8281Z" fill="#7A9CA5"/>
<path d="M30.3005 43.6063C29.8983 43.1549 29.2064 43.117 28.755 43.5192C28.0955 44.1084 26.4417 44.7018 24.2339 44.7018C22.0247 44.7018 20.3709 44.107 19.7128 43.5192C19.2614 43.117 18.5695 43.1549 18.1673 43.6063C17.7652 44.0563 17.8031 44.7482 18.2545 45.1518C19.4738 46.2417 21.7097 46.8913 24.2339 46.8913C26.7595 46.8913 28.9941 46.2417 30.2133 45.1518C30.6647 44.7482 30.7041 44.0577 30.3005 43.6063Z" fill="#7A9CA5"/>
<path d="M21.645 33.9595C21.2372 33.5123 20.5453 33.4814 20.0995 33.8892C19.7831 34.1775 18.9042 34.4883 17.7215 34.4883C16.5389 34.4883 15.66 34.1775 15.3436 33.8892C14.8964 33.4814 14.2045 33.5137 13.7981 33.9595C13.3903 34.4067 13.4226 35.0986 13.8684 35.505C14.6728 36.239 16.1128 36.6764 17.7215 36.6764C19.3303 36.6764 20.7717 36.239 21.5747 35.505C22.0205 35.0986 22.0528 34.4053 21.645 33.9595Z" fill="#7A9CA5"/>
<path d="M22.6969 28.8281C21.6717 28.163 19.8127 27.7664 17.7216 27.7664C15.6305 27.7664 13.77 28.163 12.7463 28.8281C12.24 29.1572 12.0952 29.835 12.4242 30.3413C12.6338 30.6633 12.9853 30.8391 13.3425 30.8391C13.5464 30.8391 13.7531 30.7814 13.9374 30.6619C14.4816 30.3089 15.8625 29.9531 17.7216 29.9531C19.5806 29.9531 20.9616 30.3089 21.5058 30.6619C22.0134 30.9909 22.6913 30.8475 23.0189 30.3398C23.348 29.835 23.2045 29.1572 22.6969 28.8281Z" fill="#7A9CA5"/>
<path d="M34.6697 33.9595C34.2619 33.5123 33.57 33.4814 33.1242 33.8892C32.8078 34.1775 31.9289 34.4883 30.7463 34.4883C29.5636 34.4883 28.6847 34.1775 28.3683 33.8892C27.9225 33.4814 27.2292 33.5137 26.8228 33.9595C26.415 34.4067 26.4473 35.0986 26.8931 35.505C27.6975 36.239 29.1375 36.6764 30.7463 36.6764C32.355 36.6764 33.795 36.239 34.5994 35.505C35.0466 35.0986 35.0775 34.4053 34.6697 33.9595Z" fill="#7A9CA5"/>
<path d="M45.4402 64.575C43.508 62.9325 40.8727 62.0283 38.0208 62.0283C34.2675 62.0283 31.6716 61.1916 30.5789 60.757V55.7958C36.2053 53.7553 40.5787 49.0838 42.2058 43.2745C45.7284 42.833 48.4664 39.8138 48.4664 36.18C48.4664 32.8205 46.0898 29.9334 42.8948 29.205V26.782C44.1591 22.3509 44.0803 17.9986 43.7864 15.1144C43.6191 13.4663 43.3659 12.1106 43.1831 11.2641C43.013 10.478 42.9033 10.0533 42.8217 9.80719C42.8048 9.7425 42.7838 9.67922 42.7542 9.61734C41.542 7.04813 39.3862 4.85859 36.6272 3.2175C36.5709 3.17672 36.5119 3.14297 36.45 3.11344C33.0595 1.14609 28.7831 0 24.2339 0C20.6522 0 17.1492 0.70875 14.1047 2.04891C13.552 2.29219 13.3003 2.93766 13.5436 3.49172C13.7869 4.04438 14.4323 4.29609 14.9864 4.05281C17.7553 2.83359 20.9531 2.18953 24.2339 2.18953C27.8634 2.18953 31.2862 2.97 34.1241 4.33687C32.7937 5.48156 31.2103 6.58406 29.3175 7.68234C28.7944 7.98609 28.6172 8.65547 28.9209 9.17859C29.1234 9.52875 29.4905 9.72422 29.8687 9.72422C30.0558 9.72422 30.2442 9.67641 30.4172 9.57656C32.7094 8.24625 34.5895 6.89906 36.142 5.47453C38.0405 6.71766 39.5522 8.26594 40.5141 10.0392C40.4761 10.0997 40.4367 10.1587 40.3973 10.2192C40.3706 10.2586 40.3439 10.2994 40.3172 10.3387C37.9209 13.8291 32.8359 17.1731 25.4798 20.0967C25.4362 20.1136 25.3912 20.1305 25.3477 20.1488C25.1873 20.212 25.027 20.2753 24.8653 20.3372C17.5486 23.1637 10.0856 24.8245 7.45594 25.3631C6.85828 22.9402 6.66984 20.5495 6.69094 18.4134C7.60078 18.2306 8.50641 17.9691 9.39094 17.7145C10.0842 17.5134 10.8014 17.3067 11.4933 17.1464C11.5045 17.1436 11.5158 17.1408 11.527 17.138C16.0256 15.9469 20.4525 14.3381 25.882 11.9208C26.4347 11.6747 26.6822 11.0278 26.4361 10.4766C26.19 9.92531 25.5431 9.67641 24.9919 9.9225C19.6805 12.2878 15.3591 13.86 10.9842 15.0188C10.2403 15.1917 9.49922 15.4055 8.78344 15.6122C8.09859 15.8105 7.43766 16.0003 6.79078 16.1522C7.02844 13.095 7.61063 10.8984 7.72734 10.478C8.48531 8.90719 9.68344 7.47984 11.2908 6.23109C11.7689 5.86125 11.8547 5.17359 11.4848 4.69547C11.1136 4.21875 10.4273 4.13156 9.94922 4.50141C8.04094 5.98359 6.615 7.70484 5.71078 9.62016C5.68828 9.66938 5.66859 9.71859 5.65313 9.77063C5.54906 10.1152 3.14016 18.2728 5.57016 26.7862V29.2092C2.37797 29.9334 0 32.8219 0 36.1814C0 39.8152 2.73937 42.8344 6.26062 43.2759C7.88766 49.0852 12.2625 53.7567 17.8875 55.7972V60.7584C16.792 61.1944 14.1975 62.0311 10.4456 62.0311C7.59375 62.0311 4.95984 62.9353 3.02625 64.5778C1.07578 66.2344 0 68.483 0 70.9059C0 71.5106 0.489375 72 1.09406 72H47.3737C47.9784 72 48.4678 71.5106 48.4678 70.9059C48.4678 68.483 47.392 66.2344 45.4402 64.575ZM42.7148 40.8361C42.833 39.9783 42.8948 39.112 42.8948 38.2472V31.4775C44.8636 32.1441 46.2783 34.0228 46.2783 36.1814C46.2783 38.4328 44.7637 40.3453 42.7008 40.9472C42.7064 40.9106 42.7106 40.8727 42.7148 40.8361ZM2.18813 36.1814C2.18813 34.0228 3.60281 32.1441 5.57156 31.4775V38.2472C5.57156 39.1134 5.63344 39.9783 5.75156 40.8361C5.75719 40.8727 5.76 40.9106 5.76562 40.9472C3.70266 40.3439 2.18813 38.4328 2.18813 36.1814ZM40.9219 13.1048C40.9472 13.0767 40.9725 13.0472 40.9978 13.0191C41.0667 12.9403 41.1342 12.8616 41.2003 12.7828C41.213 12.7673 41.227 12.7519 41.2397 12.7378C41.7361 15.5039 42.2423 20.3681 41.0105 25.3617C38.8322 24.9159 33.3323 23.7038 27.3642 21.6942C33.6178 19.1067 38.1558 16.2323 40.9219 13.1048ZM8.02406 41.1877C8.02266 41.1764 8.01984 41.1638 8.01703 41.1525C7.84406 40.1948 7.76109 39.2203 7.76109 38.2472V27.533C7.77094 27.5316 7.78219 27.5288 7.79344 27.5259C9.48797 27.1884 11.1727 26.7933 12.8489 26.3742C14.6152 25.9327 16.3716 25.4545 18.1167 24.9356C19.26 24.5953 20.3991 24.2381 21.5297 23.8598C21.5508 23.8528 21.5705 23.8458 21.5916 23.8388H26.8791C32.9808 25.8792 38.5847 27.1027 40.7081 27.5316V38.2458C40.7081 39.2175 40.6223 40.1948 40.4508 41.1525C40.4494 41.1638 40.4466 41.175 40.4452 41.1862C39.3258 47.3794 34.7316 52.3786 28.762 54.0872C28.7522 54.09 28.7423 54.0928 28.7325 54.0956C27.2714 54.5062 25.7527 54.72 24.2339 54.72C22.7194 54.72 21.1894 54.5161 19.7339 54.0956C19.7269 54.0942 19.7212 54.0914 19.7142 54.09C13.7419 52.3828 9.14484 47.3822 8.02406 41.1877ZM2.29219 69.8105C2.55234 68.4591 3.29484 67.2202 4.44375 66.2428C5.98078 64.9364 8.11266 64.2178 10.4456 64.2178C16.0777 64.2178 19.3584 62.5092 19.4948 62.4361C19.852 62.2462 20.0756 61.875 20.0756 61.47V56.4441C20.0784 56.8617 24.0117 56.9095 24.2325 56.9095C25.6303 56.9095 27.0253 56.7548 28.3894 56.4441V61.4714C28.3894 61.8764 28.613 62.2477 28.9702 62.4375C29.1066 62.5106 32.3873 64.2192 38.0194 64.2192C40.3523 64.2192 42.4842 64.9378 44.0213 66.2442C45.1716 67.2216 45.9127 68.4605 46.1728 69.8119H2.29219V69.8105Z" fill="#7A9CA5"/>
</svg>
