<svg width="66" height="79" viewBox="0 0 66 79" fill="none" xmlns="http://www.w3.org/2000/svg">
<path d="M12.5929 31.5116C13.4446 31.5116 14.135 30.8212 14.135 29.9695C14.135 29.1179 13.4446 28.4275 12.5929 28.4275C11.7413 28.4275 11.0509 29.1179 11.0509 29.9695C11.0509 30.8212 11.7413 31.5116 12.5929 31.5116Z" fill="#7A9CA5"/>
<path d="M64.7484 28.3527C63.7778 27.2374 62.3424 26.5989 60.811 26.5989H48.3375V23.9582C48.3375 20.0909 45.1909 16.9443 41.3236 16.9443H40.1152V16.7477C40.1152 13.9836 37.924 11.7239 35.1873 11.6096V8.97956C36.3332 8.71138 37.3282 8.32587 38.1648 7.81845C39.719 6.87524 40.3925 5.73546 40.6836 4.94615C41.3327 3.18315 40.65 1.16263 39.1293 0.347419C38.6966 0.11733 38.2379 0 37.764 0C36.7324 0 35.7633 0.572937 35.1782 1.51005C34.8826 1.70357 33.752 2.28718 30.8705 2.28718H23.692C20.0457 2.28718 17.7798 4.78006 17.7798 8.79519C17.7798 10.7624 19.1969 12.3639 20.9401 12.3639C22.4928 12.3639 23.788 11.093 24.0516 9.4245H27.4999V11.6096C24.7632 11.7239 22.5721 13.9836 22.5721 16.7477V16.9443H21.3622C17.4949 16.9443 14.3483 20.0909 14.3483 23.9582V24.0618H9.8288C7.82352 24.0618 6.19156 25.6938 6.19156 27.6991V34.5728C5.09597 35.5099 4.39961 36.8996 4.39961 38.4523V40.7181C2.32119 42.2023 0.905613 44.5733 0.724285 47.2932C0.646573 48.4863 0.591717 49.751 0.562765 51.0493C0.549051 51.706 1.06866 52.25 1.7254 52.2652C2.38062 52.2805 2.92613 51.7593 2.93984 51.1026C2.96727 49.8394 3.0206 48.6112 3.09679 47.4501C3.25526 45.0487 4.73637 43.0205 6.79345 42.0606C6.80869 42.0545 6.8224 42.0468 6.83612 42.0408C7.65895 41.6674 8.57017 41.4663 9.47376 41.4663H15.709C16.6157 41.4663 17.5223 41.6674 18.3467 42.0408C18.3619 42.0468 18.3756 42.0545 18.3893 42.0606C20.4693 43.0251 21.9336 45.1599 22.086 47.4501C22.2064 49.2558 22.2658 51.1117 22.2658 52.9631C22.2658 53.8393 22.2414 54.7139 22.2231 55.5886C22.2216 55.619 22.2216 55.6495 22.2201 55.6815C22.2094 55.9909 21.3485 56.8442 21.1687 57.1642C20.8731 57.6899 20.6338 58.243 20.4571 58.819C20.0548 60.1264 19.9695 61.5054 19.9451 62.8646C19.91 64.9003 20.1127 66.9452 20.5622 68.9322C20.5637 68.9414 20.5653 68.949 20.5683 68.9581C19.8171 71.0243 17.885 72.3912 15.6694 72.3912H9.51338C7.06468 72.3912 4.91922 70.6449 4.40876 68.2389C3.59963 64.4219 3.11508 60.2361 2.96727 55.7958C2.94594 55.1391 2.39281 54.624 1.73911 54.6469C1.08237 54.6682 0.567337 55.2183 0.590193 55.875C0.74257 60.454 1.24541 64.7799 2.08196 68.7326C2.82251 72.2312 5.94929 74.7713 9.51338 74.7713H15.6724C17.9886 74.7713 20.0914 73.7458 21.4978 72.0559C22.249 74.0566 23.2608 75.9126 24.5118 77.5522C24.7373 77.8463 25.0863 78.02 25.4566 78.02H47.9001C48.2704 78.02 48.6209 77.8463 48.8449 77.5522C49.2075 77.0783 49.5489 76.5846 49.8704 76.0772H60.0964C60.7531 76.0772 61.2864 75.5454 61.2864 74.8871V65.0679L64.11 44.6708C64.1999 44.0201 63.7458 43.4198 63.0951 43.3299C62.443 43.24 61.8441 43.694 61.7542 44.3447L59.496 60.6612H53.279C53.1983 59.8795 53.0276 59.1085 52.7518 58.3725C51.9046 56.1143 50.1706 54.333 47.9961 53.4035L47.9535 53.0911L44.9913 31.6913C44.9806 31.6151 44.9745 31.5374 44.9715 31.4612C44.9715 31.4567 44.9715 31.4536 44.9715 31.449C44.9501 30.6795 45.3631 29.9862 45.9634 29.5306C46.4465 29.1649 47.0804 28.979 47.6822 28.979H60.8125C61.6552 28.979 62.4369 29.3203 62.9565 29.9161C63.3984 30.4235 63.5934 31.0544 63.505 31.6898L62.4125 39.5844C62.3226 40.2351 62.7767 40.8355 63.4273 40.9254C64.078 41.0153 64.6783 40.5612 64.7682 39.9105L65.8608 32.0144C66.0436 30.6872 65.649 29.3859 64.7484 28.3527ZM23.6905 7.04438C23.142 7.04438 22.4608 7.10685 22.0662 7.54113C21.7569 7.88093 21.7203 8.35787 21.7203 8.79519C21.7203 9.49612 21.3089 9.98525 20.9386 9.98525C20.5683 9.98525 20.1569 9.49612 20.1569 8.79519C20.1569 5.20214 22.3709 4.6673 23.6905 4.6673H30.869C31.9783 4.6673 33.1303 4.59721 34.2319 4.3595C35.1812 4.15379 36.2433 3.84904 36.9412 3.13591C37.1957 2.87535 37.3191 2.38165 37.7625 2.38165C37.8417 2.38165 37.9195 2.40298 38.0002 2.44565C38.4208 2.67116 38.7012 3.43762 38.4467 4.12636C38.2425 4.68101 37.3572 6.24897 33.8297 6.828C33.8205 6.82953 33.8129 6.82953 33.8038 6.83105C32.8346 6.98952 31.8503 7.0459 30.869 7.0459L23.6905 7.04438ZM32.8057 9.34527V11.602H29.8785V9.42298C29.8816 9.47479 32.8057 9.36965 32.8057 9.34527ZM27.7148 13.9806H34.9694C36.4932 13.9806 37.7336 15.2209 37.7336 16.7447V16.9413H24.9507V16.7447C24.9507 15.2209 26.191 13.9806 27.7148 13.9806ZM8.57169 27.7036V27.6975C8.57169 27.0042 9.13548 26.4404 9.8288 26.4404H15.3555C15.3829 26.4404 15.4088 26.4435 15.4347 26.445C15.4408 26.445 15.4454 26.4465 15.45 26.4465C16.8442 26.5486 16.6126 28.1714 16.6126 29.1466C16.6126 30.3306 16.6126 31.5146 16.6126 32.6985C16.6126 32.9439 16.6126 33.1877 16.6126 33.433C16.3063 33.3766 15.994 33.3477 15.6816 33.3477C15.6816 33.3477 9.50423 33.3477 9.50119 33.3477C9.2132 33.3477 8.87644 33.4315 8.57321 33.4223C8.48331 31.5283 8.57169 29.6022 8.57169 27.7036ZM18.4061 39.5098C18.4061 39.1639 16.0442 39.0846 15.709 39.0846H9.47681C8.56407 39.0846 7.64829 39.2294 6.77974 39.5098V38.4492C6.77974 36.9788 8.03228 35.7247 9.50424 35.7247H15.6846C16.5791 35.7247 17.4431 36.188 17.9429 36.9285C18.464 37.7011 18.4061 38.6214 18.4061 39.5098ZM51.705 72.5725C51.7233 72.5131 51.737 72.4674 51.7477 72.4384C52.1606 71.2712 52.5293 70.0827 52.799 68.8728C53.2257 66.962 53.4345 64.9948 53.4116 63.0368H58.9078V73.694C58.9078 73.694 51.1732 73.694 51.1701 73.694C51.3743 73.6955 51.5998 72.9199 51.705 72.5725ZM50.4281 58.9835H44.8115C44.1547 58.9835 43.6214 59.5153 43.6214 60.1736C43.6214 60.8319 44.1532 61.3637 44.8115 61.3637H50.9522C50.9568 61.4139 50.9599 61.4657 50.9644 61.516C51.3347 66.4439 50.1919 71.582 47.2998 75.6398H26.0585C24.6002 73.5949 23.5442 71.195 22.9332 68.6046C22.377 66.2443 22.2033 63.7804 22.4045 61.3637H40.0527C40.7095 61.3637 41.2428 60.8319 41.2428 60.1736C41.2428 59.5153 40.711 58.9835 40.0527 58.9835H22.9256C23.2334 58.2536 23.6783 57.5847 24.2452 57.0057C25.4322 55.7928 27.1281 55.0705 28.8454 55.0705H44.5113C45.0553 55.0705 45.5916 55.1406 46.1082 55.2762C48.0129 55.7714 49.6479 57.1337 50.4281 58.9835ZM45.9573 26.8808C45.9573 26.8732 44.5387 27.6168 44.4031 27.7234C42.0687 29.584 42.6706 32.3024 43.0256 34.8699L45.5002 52.7467C45.4926 52.7452 45.485 52.7452 45.4758 52.7452C45.3402 52.73 45.2031 52.7193 45.0659 52.7102C45.0355 52.7087 45.0065 52.7056 44.976 52.7041C44.8221 52.6965 44.6667 52.6904 44.5098 52.6904H28.8454C28.0912 52.6904 27.3384 52.7879 26.6085 52.9784C26.2535 53.0713 25.903 53.1856 25.5632 53.3197C25.4383 53.37 24.6444 53.6458 24.6429 53.7494C24.6459 53.4843 24.6459 53.2222 24.6459 52.9601C24.6459 51.0554 24.5834 49.1476 24.46 47.2901C24.3701 45.9355 23.9556 44.5992 23.2715 43.4274C22.9606 42.8956 22.5934 42.3958 22.1789 41.9402C21.9641 41.704 21.737 41.48 21.4978 41.2697C21.4079 41.1905 20.7847 40.7882 20.7847 40.7044V38.4477C20.7847 36.9803 20.1218 35.5251 18.9927 34.5652V27.696C18.9927 27.6107 18.9882 27.5269 18.9821 27.4431C18.9805 27.4263 18.979 27.408 18.9775 27.3913C18.8617 26.0031 17.9642 24.8344 16.7269 24.3285V23.9552C16.7269 21.3998 18.8068 19.3199 21.3622 19.3199H41.3205C43.8759 19.3199 45.9558 21.3998 45.9558 23.9552C45.9573 23.9567 45.9573 26.8808 45.9573 26.8808Z" fill="#7A9CA5"/>
</svg>
