<svg width="191" height="35" viewBox="0 0 191 35" fill="none" xmlns="http://www.w3.org/2000/svg">
<path d="M45.952 9.176C46.4373 9.19467 47.072 9.21333 47.856 9.232C48.64 9.25067 49.424 9.26 50.208 9.26C51.104 9.26 51.972 9.25067 52.812 9.232C53.652 9.21333 54.2493 9.204 54.604 9.204C56.9187 9.204 58.6453 9.61467 59.784 10.436C60.9413 11.2573 61.52 12.312 61.52 13.6C61.52 14.2533 61.324 14.916 60.932 15.588C60.54 16.26 59.9333 16.8573 59.112 17.38C58.2907 17.9027 57.2267 18.2853 55.92 18.528V18.584C57.6747 18.7147 59.0653 19.032 60.092 19.536C61.1187 20.04 61.856 20.6467 62.304 21.356C62.752 22.0653 62.976 22.8027 62.976 23.568C62.976 24.744 62.668 25.7333 62.052 26.536C61.436 27.3387 60.5493 27.9547 59.392 28.384C58.2347 28.7947 56.8533 29 55.248 29C54.8 29 54.156 28.9907 53.316 28.972C52.476 28.9347 51.4587 28.916 50.264 28.916C49.4427 28.916 48.64 28.9253 47.856 28.944C47.072 28.944 46.4373 28.9627 45.952 29V28.44C46.5493 28.4027 46.9973 28.328 47.296 28.216C47.5947 28.104 47.7907 27.88 47.884 27.544C47.996 27.208 48.052 26.704 48.052 26.032V12.144C48.052 11.4533 47.996 10.9493 47.884 10.632C47.7907 10.296 47.5853 10.072 47.268 9.96C46.9693 9.82933 46.5307 9.75467 45.952 9.736V9.176ZM54.24 9.736C53.512 9.736 53.036 9.89467 52.812 10.212C52.6067 10.5293 52.504 11.1733 52.504 12.144V26.032C52.504 26.6853 52.5507 27.18 52.644 27.516C52.756 27.852 52.9427 28.076 53.204 28.188C53.484 28.3 53.8947 28.356 54.436 28.356C55.78 28.356 56.76 27.936 57.376 27.096C58.0107 26.2373 58.328 25.024 58.328 23.456C58.328 22.0187 57.964 20.908 57.236 20.124C56.5267 19.34 55.3413 18.948 53.68 18.948H51.3C51.3 18.948 51.3 18.8733 51.3 18.724C51.3 18.556 51.3 18.472 51.3 18.472H53.708C54.5853 18.472 55.2573 18.2667 55.724 17.856C56.1907 17.4267 56.5173 16.8667 56.704 16.176C56.8907 15.4667 56.984 14.7107 56.984 13.908C56.984 12.5267 56.7693 11.4907 56.34 10.8C55.9107 10.0907 55.2107 9.736 54.24 9.736ZM71.7085 14.132C73.3512 14.132 74.6392 14.6173 75.5725 15.588C76.5058 16.5587 76.9725 18.1453 76.9725 20.348H67.7605L67.7045 19.816H73.4445C73.4632 18.9013 73.4072 18.0613 73.2765 17.296C73.1458 16.512 72.9405 15.8867 72.6605 15.42C72.3805 14.9533 72.0072 14.72 71.5405 14.72C70.8872 14.72 70.3272 15.1307 69.8605 15.952C69.4125 16.7733 69.1418 18.136 69.0485 20.04L69.1325 20.208C69.1138 20.432 69.0952 20.6653 69.0765 20.908C69.0765 21.1507 69.0765 21.4027 69.0765 21.664C69.0765 22.952 69.2538 23.9973 69.6085 24.8C69.9818 25.6027 70.4485 26.1907 71.0085 26.564C71.5685 26.9187 72.1378 27.096 72.7165 27.096C73.1085 27.096 73.5098 27.04 73.9205 26.928C74.3498 26.7973 74.7792 26.5733 75.2085 26.256C75.6378 25.92 76.0392 25.4533 76.4125 24.856L76.9165 25.024C76.6925 25.7333 76.3378 26.424 75.8525 27.096C75.3672 27.768 74.7512 28.3187 74.0045 28.748C73.2578 29.1773 72.3618 29.392 71.3165 29.392C70.0472 29.392 68.9272 29.1213 67.9565 28.58C66.9858 28.0387 66.2205 27.2173 65.6605 26.116C65.1192 25.0147 64.8485 23.6147 64.8485 21.916C64.8485 20.18 65.1378 18.7333 65.7165 17.576C66.3138 16.4187 67.1258 15.56 68.1525 15C69.1978 14.4213 70.3832 14.132 71.7085 14.132ZM82.4579 29.196C81.6179 29.196 80.9179 29.0373 80.3579 28.72C79.7979 28.4027 79.3872 27.9827 79.1259 27.46C78.8645 26.9187 78.7339 26.3307 78.7339 25.696C78.7339 24.8933 78.9112 24.24 79.2659 23.736C79.6392 23.232 80.1152 22.8213 80.6939 22.504C81.2725 22.1867 81.8792 21.9253 82.5139 21.72C83.1672 21.5147 83.7832 21.3187 84.3619 21.132C84.9592 20.9267 85.4352 20.6933 85.7899 20.432C86.1632 20.152 86.3499 19.7973 86.3499 19.368V17.184C86.3499 16.6987 86.2659 16.2693 86.0979 15.896C85.9485 15.504 85.7059 15.2053 85.3699 15C85.0525 14.7947 84.6325 14.692 84.1099 14.692C83.7365 14.692 83.3632 14.748 82.9899 14.86C82.6165 14.9533 82.3085 15.1213 82.0659 15.364C82.5885 15.5507 82.9899 15.84 83.2699 16.232C83.5685 16.6053 83.7179 17.0347 83.7179 17.52C83.7179 18.1547 83.4939 18.6587 83.0459 19.032C82.6165 19.4053 82.1032 19.592 81.5059 19.592C80.8339 19.592 80.3205 19.3867 79.9659 18.976C79.6299 18.5467 79.4619 18.0333 79.4619 17.436C79.4619 16.8947 79.5925 16.4467 79.8539 16.092C80.1339 15.7373 80.5165 15.4013 81.0019 15.084C81.5245 14.7853 82.1499 14.552 82.8779 14.384C83.6245 14.216 84.4272 14.132 85.2859 14.132C86.1445 14.132 86.9192 14.2253 87.6099 14.412C88.3005 14.58 88.8792 14.8973 89.3459 15.364C89.7752 15.7933 90.0552 16.3253 90.1859 16.96C90.3165 17.576 90.3819 18.36 90.3819 19.312V26.928C90.3819 27.3947 90.4285 27.7213 90.5219 27.908C90.6152 28.076 90.7739 28.16 90.9979 28.16C91.1659 28.16 91.3245 28.1133 91.4739 28.02C91.6419 27.9267 91.8192 27.8147 92.0059 27.684L92.2859 28.16C91.8939 28.496 91.4365 28.7573 90.9139 28.944C90.4099 29.112 89.8405 29.196 89.2059 29.196C88.5152 29.196 87.9645 29.1027 87.5539 28.916C87.1432 28.7107 86.8445 28.44 86.6579 28.104C86.4899 27.768 86.4059 27.376 86.4059 26.928C85.9579 27.6373 85.4165 28.1973 84.7819 28.608C84.1472 29 83.3725 29.196 82.4579 29.196ZM84.4459 27.404C84.8192 27.404 85.1552 27.32 85.4539 27.152C85.7712 26.9653 86.0699 26.6667 86.3499 26.256V20.516C86.1819 20.796 85.9485 21.048 85.6499 21.272C85.3512 21.496 85.0339 21.7293 84.6979 21.972C84.3619 22.196 84.0352 22.448 83.7179 22.728C83.4192 23.008 83.1765 23.3533 82.9899 23.764C82.8032 24.1747 82.7099 24.6693 82.7099 25.248C82.7099 25.976 82.8685 26.5173 83.1859 26.872C83.5032 27.2267 83.9232 27.404 84.4459 27.404ZM107.03 14.216V25.948C107.03 26.788 107.161 27.4133 107.422 27.824C107.683 28.216 108.15 28.412 108.822 28.412V29C108.243 28.944 107.665 28.916 107.086 28.916C106.302 28.916 105.574 28.944 104.902 29C104.23 29.056 103.595 29.1587 102.998 29.308V26.788C102.55 27.7213 101.925 28.3933 101.122 28.804C100.338 29.196 99.4607 29.392 98.4901 29.392C97.7061 29.392 97.0714 29.2893 96.5861 29.084C96.1007 28.8787 95.7181 28.6173 95.4381 28.3C95.1207 27.9453 94.8967 27.4787 94.7661 26.9C94.6354 26.3213 94.5701 25.5747 94.5701 24.66V17.576C94.5701 16.736 94.4394 16.12 94.1781 15.728C93.9354 15.3173 93.4687 15.112 92.7781 15.112V14.524C93.3754 14.58 93.9541 14.608 94.5141 14.608C95.2981 14.608 96.0261 14.58 96.6981 14.524C97.3887 14.4493 98.0234 14.3467 98.6021 14.216V25.808C98.6021 26.2747 98.6394 26.6853 98.7141 27.04C98.8074 27.3947 98.9754 27.6747 99.2181 27.88C99.4607 28.0667 99.8154 28.16 100.282 28.16C100.786 28.16 101.234 28.02 101.626 27.74C102.037 27.46 102.363 27.0773 102.606 26.592C102.867 26.088 102.998 25.528 102.998 24.912V17.576C102.998 16.736 102.867 16.12 102.606 15.728C102.363 15.3173 101.897 15.112 101.206 15.112V14.524C101.803 14.58 102.382 14.608 102.942 14.608C103.726 14.608 104.454 14.58 105.126 14.524C105.817 14.4493 106.451 14.3467 107.03 14.216ZM115.751 9.932V14.524H119.055V15.084H115.751V26.396C115.751 26.956 115.853 27.3573 116.059 27.6C116.264 27.824 116.572 27.936 116.983 27.936C117.319 27.936 117.655 27.8147 117.991 27.572C118.327 27.3107 118.625 26.872 118.887 26.256L119.363 26.508C119.064 27.348 118.607 28.0387 117.991 28.58C117.393 29.1213 116.572 29.392 115.527 29.392C114.911 29.392 114.369 29.308 113.903 29.14C113.436 28.9907 113.044 28.7573 112.727 28.44C112.316 28.0293 112.045 27.5253 111.915 26.928C111.784 26.312 111.719 25.5187 111.719 24.548V15.084H109.367V14.524H111.719V10.828C112.503 10.828 113.221 10.7627 113.875 10.632C114.547 10.4827 115.172 10.2493 115.751 9.932ZM133.602 14.524V15.084C133.248 15.1773 132.912 15.4013 132.594 15.756C132.277 16.092 131.969 16.6707 131.67 17.492L127.722 28.58L126.686 30.54L120.582 16.68C120.265 15.952 119.948 15.5133 119.63 15.364C119.332 15.196 119.07 15.112 118.846 15.112V14.524C119.462 14.58 120.097 14.6267 120.75 14.664C121.422 14.6827 122.066 14.692 122.682 14.692C123.448 14.692 124.148 14.6733 124.782 14.636C125.417 14.5987 126.014 14.5613 126.574 14.524V15.112C126.201 15.112 125.846 15.14 125.51 15.196C125.193 15.2333 124.969 15.364 124.838 15.588C124.726 15.7933 124.782 16.1573 125.006 16.68L128.534 25.192L128.282 25.36L130.354 19.564C130.709 18.556 130.858 17.7347 130.802 17.1C130.746 16.4467 130.541 15.9613 130.186 15.644C129.832 15.308 129.346 15.1213 128.73 15.084V14.524C129.029 14.5427 129.337 14.5613 129.654 14.58C129.972 14.58 130.289 14.5893 130.606 14.608C130.924 14.608 131.204 14.608 131.446 14.608C131.82 14.608 132.212 14.5987 132.622 14.58C133.033 14.5613 133.36 14.5427 133.602 14.524ZM127.722 28.58L126.658 31.576C126.472 32.0427 126.276 32.4347 126.07 32.752C125.884 33.088 125.669 33.3587 125.426 33.564C125.165 33.788 124.829 33.956 124.418 34.068C124.008 34.1987 123.532 34.264 122.99 34.264C122.542 34.264 122.076 34.1893 121.59 34.04C121.124 33.8907 120.732 33.648 120.414 33.312C120.097 32.976 119.938 32.5467 119.938 32.024C119.938 31.4453 120.144 30.9787 120.554 30.624C120.965 30.288 121.506 30.12 122.178 30.12C122.794 30.12 123.298 30.2693 123.69 30.568C124.082 30.8667 124.278 31.3053 124.278 31.884C124.278 32.2573 124.157 32.612 123.914 32.948C123.69 33.284 123.345 33.536 122.878 33.704C122.972 33.7227 123.084 33.732 123.214 33.732C123.345 33.732 123.448 33.732 123.522 33.732C124.082 33.732 124.577 33.5547 125.006 33.2C125.436 32.8453 125.79 32.2853 126.07 31.52L127.05 28.636L127.722 28.58ZM144.846 14.132C145.63 14.132 146.264 14.2347 146.75 14.44C147.254 14.6267 147.646 14.888 147.926 15.224C148.224 15.5787 148.439 16.036 148.57 16.596C148.719 17.156 148.794 17.912 148.794 18.864V26.396C148.794 27.18 148.924 27.712 149.186 27.992C149.466 28.272 149.932 28.412 150.586 28.412V29C150.231 28.9813 149.699 28.9627 148.99 28.944C148.28 28.9067 147.58 28.888 146.89 28.888C146.18 28.888 145.48 28.9067 144.79 28.944C144.118 28.9627 143.604 28.9813 143.25 29V28.412C143.81 28.412 144.202 28.272 144.426 27.992C144.65 27.712 144.762 27.18 144.762 26.396V17.688C144.762 17.2213 144.715 16.82 144.622 16.484C144.528 16.1293 144.36 15.8587 144.118 15.672C143.875 15.4667 143.511 15.364 143.026 15.364C142.522 15.364 142.055 15.504 141.626 15.784C141.215 16.064 140.879 16.456 140.618 16.96C140.375 17.4453 140.254 17.996 140.254 18.612V26.396C140.254 27.18 140.366 27.712 140.59 27.992C140.832 28.272 141.224 28.412 141.766 28.412V29C141.43 28.9813 140.935 28.9627 140.282 28.944C139.647 28.9067 138.984 28.888 138.294 28.888C137.584 28.888 136.856 28.9067 136.11 28.944C135.363 28.9627 134.803 28.9813 134.43 29V28.412C135.083 28.412 135.54 28.272 135.802 27.992C136.082 27.712 136.222 27.18 136.222 26.396V17.576C136.222 16.736 136.091 16.12 135.83 15.728C135.587 15.3173 135.12 15.112 134.43 15.112V14.524C135.027 14.58 135.606 14.608 136.166 14.608C136.95 14.608 137.678 14.58 138.35 14.524C139.04 14.4493 139.675 14.3467 140.254 14.216V16.736C140.72 15.784 141.355 15.112 142.158 14.72C142.96 14.328 143.856 14.132 144.846 14.132ZM158.853 14.132C160.496 14.132 161.784 14.6173 162.717 15.588C163.65 16.5587 164.117 18.1453 164.117 20.348H154.905L154.849 19.816H160.589C160.608 18.9013 160.552 18.0613 160.421 17.296C160.29 16.512 160.085 15.8867 159.805 15.42C159.525 14.9533 159.152 14.72 158.685 14.72C158.032 14.72 157.472 15.1307 157.005 15.952C156.557 16.7733 156.286 18.136 156.193 20.04L156.277 20.208C156.258 20.432 156.24 20.6653 156.221 20.908C156.221 21.1507 156.221 21.4027 156.221 21.664C156.221 22.952 156.398 23.9973 156.753 24.8C157.126 25.6027 157.593 26.1907 158.153 26.564C158.713 26.9187 159.282 27.096 159.861 27.096C160.253 27.096 160.654 27.04 161.065 26.928C161.494 26.7973 161.924 26.5733 162.353 26.256C162.782 25.92 163.184 25.4533 163.557 24.856L164.061 25.024C163.837 25.7333 163.482 26.424 162.997 27.096C162.512 27.768 161.896 28.3187 161.149 28.748C160.402 29.1773 159.506 29.392 158.461 29.392C157.192 29.392 156.072 29.1213 155.101 28.58C154.13 28.0387 153.365 27.2173 152.805 26.116C152.264 25.0147 151.993 23.6147 151.993 21.916C151.993 20.18 152.282 18.7333 152.861 17.576C153.458 16.4187 154.27 15.56 155.297 15C156.342 14.4213 157.528 14.132 158.853 14.132ZM171.282 14.132C172.066 14.132 172.748 14.2347 173.326 14.44C173.924 14.6267 174.353 14.8133 174.614 15C175.249 15.4293 175.641 15.1493 175.79 14.16H176.378C176.341 14.6827 176.313 15.3267 176.294 16.092C176.276 16.8387 176.266 17.8373 176.266 19.088H175.678C175.585 18.3973 175.408 17.716 175.146 17.044C174.885 16.372 174.502 15.8213 173.998 15.392C173.513 14.9627 172.878 14.748 172.094 14.748C171.553 14.748 171.096 14.9067 170.722 15.224C170.349 15.5227 170.162 15.9613 170.162 16.54C170.162 17.1 170.33 17.5947 170.666 18.024C171.002 18.4347 171.432 18.836 171.954 19.228C172.496 19.6013 173.056 20.0027 173.634 20.432C174.25 20.8987 174.81 21.3653 175.314 21.832C175.818 22.28 176.22 22.7747 176.518 23.316C176.817 23.8573 176.966 24.5013 176.966 25.248C176.966 26.088 176.724 26.8253 176.238 27.46C175.753 28.076 175.109 28.552 174.306 28.888C173.522 29.224 172.645 29.392 171.674 29.392C171.114 29.392 170.61 29.336 170.162 29.224C169.733 29.112 169.36 28.972 169.042 28.804C168.8 28.692 168.566 28.5893 168.342 28.496C168.137 28.384 167.941 28.2907 167.754 28.216C167.568 28.16 167.4 28.2253 167.25 28.412C167.12 28.5987 167.017 28.86 166.942 29.196H166.354C166.392 28.5987 166.42 27.8707 166.438 27.012C166.457 26.1533 166.466 25.0147 166.466 23.596H167.054C167.166 24.604 167.372 25.5 167.67 26.284C167.969 27.0493 168.37 27.656 168.874 28.104C169.397 28.5333 170.05 28.748 170.834 28.748C171.152 28.748 171.46 28.6827 171.758 28.552C172.057 28.4213 172.3 28.2067 172.486 27.908C172.692 27.6093 172.794 27.2267 172.794 26.76C172.794 25.9387 172.524 25.2573 171.982 24.716C171.46 24.1747 170.788 23.5867 169.966 22.952C169.369 22.4667 168.8 21.9907 168.258 21.524C167.736 21.0387 167.306 20.516 166.97 19.956C166.634 19.3773 166.466 18.724 166.466 17.996C166.466 17.156 166.69 16.4467 167.138 15.868C167.586 15.2893 168.174 14.86 168.902 14.58C169.649 14.2813 170.442 14.132 171.282 14.132ZM184.216 14.132C185 14.132 185.681 14.2347 186.26 14.44C186.857 14.6267 187.287 14.8133 187.548 15C188.183 15.4293 188.575 15.1493 188.724 14.16H189.312C189.275 14.6827 189.247 15.3267 189.228 16.092C189.209 16.8387 189.2 17.8373 189.2 19.088H188.612C188.519 18.3973 188.341 17.716 188.08 17.044C187.819 16.372 187.436 15.8213 186.932 15.392C186.447 14.9627 185.812 14.748 185.028 14.748C184.487 14.748 184.029 14.9067 183.656 15.224C183.283 15.5227 183.096 15.9613 183.096 16.54C183.096 17.1 183.264 17.5947 183.6 18.024C183.936 18.4347 184.365 18.836 184.888 19.228C185.429 19.6013 185.989 20.0027 186.568 20.432C187.184 20.8987 187.744 21.3653 188.248 21.832C188.752 22.28 189.153 22.7747 189.452 23.316C189.751 23.8573 189.9 24.5013 189.9 25.248C189.9 26.088 189.657 26.8253 189.172 27.46C188.687 28.076 188.043 28.552 187.24 28.888C186.456 29.224 185.579 29.392 184.608 29.392C184.048 29.392 183.544 29.336 183.096 29.224C182.667 29.112 182.293 28.972 181.976 28.804C181.733 28.692 181.5 28.5893 181.276 28.496C181.071 28.384 180.875 28.2907 180.688 28.216C180.501 28.16 180.333 28.2253 180.184 28.412C180.053 28.5987 179.951 28.86 179.876 29.196H179.288C179.325 28.5987 179.353 27.8707 179.372 27.012C179.391 26.1533 179.4 25.0147 179.4 23.596H179.988C180.1 24.604 180.305 25.5 180.604 26.284C180.903 27.0493 181.304 27.656 181.808 28.104C182.331 28.5333 182.984 28.748 183.768 28.748C184.085 28.748 184.393 28.6827 184.692 28.552C184.991 28.4213 185.233 28.2067 185.42 27.908C185.625 27.6093 185.728 27.2267 185.728 26.76C185.728 25.9387 185.457 25.2573 184.916 24.716C184.393 24.1747 183.721 23.5867 182.9 22.952C182.303 22.4667 181.733 21.9907 181.192 21.524C180.669 21.0387 180.24 20.516 179.904 19.956C179.568 19.3773 179.4 18.724 179.4 17.996C179.4 17.156 179.624 16.4467 180.072 15.868C180.52 15.2893 181.108 14.86 181.836 14.58C182.583 14.2813 183.376 14.132 184.216 14.132Z" fill="#141414"/>
<circle cx="16.5" cy="18.5" r="15.25" stroke="#7A9CA5" stroke-width="2.5"/>
<path d="M24.766 14.1842C24.8916 15.4888 24.4194 16.7969 23.4533 17.8209L17.6715 23.9674L9.70748 24.7339L9.03718 17.7696L14.8292 11.6303C15.7953 10.6063 17.1761 9.95041 18.6679 9.80683L23.8855 9.93175L24.766 14.1842Z" stroke="#7A9CA5" stroke-width="2.5" stroke-linecap="round" stroke-linejoin="round"/>
<path d="M20 14L5 29" stroke="#7A9CA5" stroke-width="2.5" stroke-linecap="round" stroke-linejoin="round"/>
<path d="M21 20H14" stroke="#7A9CA5" stroke-width="2.5" stroke-linecap="round" stroke-linejoin="round"/>
<path d="M20 14H13" stroke="#7A9CA5" stroke-width="2.5" stroke-linecap="round" stroke-linejoin="round"/>
</svg>
