<svg width="74" height="74" viewBox="0 0 74 74" fill="none" xmlns="http://www.w3.org/2000/svg">
<path d="M12.1538 58.3691C11.9338 58.9273 11.3999 59.2668 10.834 59.2668C10.6602 59.2668 10.4828 59.2348 10.3107 59.1655C4.88063 57.0092 1.58641 54.2379 0.781033 51.1536C0.582351 50.3946 1.03648 49.616 1.79573 49.4187C2.55498 49.2213 3.3302 49.6746 3.52711 50.4355C4.0859 52.5758 6.86745 54.7392 11.3591 56.5239C12.0864 56.8119 12.443 57.6385 12.1538 58.3691ZM16.9772 43.4813C17.245 43.7089 17.5715 43.8208 17.8961 43.8208C18.297 43.8208 18.6961 43.6502 18.9764 43.3213C19.4855 42.724 19.4128 41.8263 18.8168 41.3161C18.1125 40.7153 17.4242 40.0789 16.7696 39.4229C10.5324 33.1727 7.26659 25.2284 8.25645 18.8964C10.9174 18.4787 13.8621 18.8164 16.8459 19.8155C16.9719 19.8812 17.1102 19.9292 17.2539 19.9559C21.2258 21.3638 25.2491 23.9289 28.7402 27.4274C29.6183 28.3073 30.4556 29.2423 31.2273 30.2023C31.7187 30.8138 32.6128 30.9098 33.223 30.4174C33.8332 29.925 33.929 29.029 33.4377 28.4175C32.6021 27.3776 31.6974 26.3679 30.7466 25.4151C27.1596 21.8207 23.0228 19.1275 18.8629 17.5383C18.7618 14.966 19.1964 12.6178 20.1171 10.7672C22.4605 11.2774 24.8854 12.7066 27.0656 14.87C26.7623 16.0842 26.5193 17.3392 26.3436 18.6262C26.2372 19.4048 26.78 20.1212 27.557 20.2279C28.334 20.3345 29.0489 19.7906 29.1553 19.012C30.1097 12.0436 33.129 6.19333 37.3049 3.13755C41.4807 6.19333 44.5 12.0418 45.4544 19.0084C45.5608 19.787 46.2757 20.331 47.0527 20.2243C47.8297 20.1177 48.3725 19.3995 48.2661 18.6227C48.0905 17.3356 47.8474 16.0824 47.5441 14.87C49.7243 12.7066 52.151 11.2774 54.4927 10.7672C55.4116 12.6178 55.8479 14.966 55.7468 17.5383C51.5869 19.1293 47.4501 21.8224 43.8632 25.4151C42.9123 26.3679 42.0076 27.3776 41.1721 28.4175C40.6807 29.029 40.7765 29.925 41.3867 30.4174C41.997 30.9098 42.891 30.8138 43.3824 30.2023C44.1541 29.2423 44.9914 28.3091 45.8695 27.4274C49.3606 23.9289 53.3822 21.362 57.354 19.9559C57.4995 19.9292 57.6379 19.8812 57.7638 19.8155C60.7476 18.8182 63.6923 18.4787 66.3533 18.8964C67.3431 25.2302 64.0773 33.1745 57.8401 39.4229C57.1855 40.0789 56.4972 40.7153 55.793 41.3161C55.1969 41.8245 55.1242 42.7223 55.6315 43.3213C56.1389 43.9186 57.0347 43.9915 57.6325 43.4831C58.3936 42.8342 59.1386 42.1445 59.8464 41.4352C67.0558 34.2126 70.6267 24.7644 68.9486 17.3676C68.8279 16.8343 68.4128 16.4184 67.8789 16.2957C65.0104 15.6415 61.8333 15.782 58.5958 16.6228C58.5656 13.4906 57.8206 10.6392 56.4404 8.44384C56.1495 7.98165 55.6191 7.72744 55.0763 7.78966C52.2255 8.1203 49.2772 9.54242 46.627 11.8445C44.7945 6.7124 41.7912 2.57226 38.0588 0.218651C37.5976 -0.0728836 37.0086 -0.0728836 36.5474 0.218651C32.815 2.57226 29.8117 6.7124 27.9792 11.8445C25.3289 9.54242 22.3842 8.1203 19.5299 7.78966C18.9871 7.72744 18.4584 7.98165 18.1675 8.44384C16.7891 10.6392 16.0459 13.4906 16.0157 16.6228C12.78 15.782 9.60111 15.6415 6.73263 16.2957C6.20045 16.4166 5.78534 16.8343 5.66294 17.3676C3.98301 24.7644 7.55574 34.2109 14.7651 41.4352C15.4711 42.1427 16.2162 42.8307 16.9772 43.4813ZM16.3049 54.6023C16.5639 53.861 16.1736 53.0504 15.4338 52.7909C11.1515 51.2905 8.59528 49.3938 8.59528 47.7192C8.59528 46.6366 9.70932 45.4136 11.7316 44.2741C12.4146 43.8902 12.6576 43.0227 12.2727 42.3383C11.8895 41.6539 11.0238 41.4103 10.3408 41.7961C7.29852 43.5098 5.75696 45.5025 5.75696 47.721C5.75696 50.7928 8.77977 53.4735 14.4972 55.4787C14.6515 55.5338 14.8094 55.5587 14.9655 55.5587C15.5527 55.5569 16.1009 55.1889 16.3049 54.6023ZM58.8956 52.8904C58.1541 53.1428 57.7567 53.9499 58.0086 54.6947C58.2091 55.2867 58.7608 55.66 59.3515 55.66C59.5023 55.66 59.6566 55.6351 59.8074 55.5835C65.7271 53.5695 68.8581 50.8497 68.8581 47.7192C68.8581 45.5807 67.4212 43.6484 64.5882 41.9756C63.9123 41.5774 63.0431 41.8014 62.6457 42.4787C62.2484 43.156 62.4719 44.0271 63.1477 44.4252C64.9997 45.5185 66.0198 46.6882 66.0198 47.7174C66.018 49.4133 63.2897 51.3954 58.8956 52.8904ZM51.3811 63.2843C51.3811 64.7242 50.2121 65.8975 48.7734 65.8975C47.9894 65.8975 47.3543 66.5339 47.3543 67.3196C47.3543 68.1053 47.9894 68.7417 48.7734 68.7417C51.7767 68.7417 54.2195 66.2939 54.2195 63.2843C54.2195 62.4986 53.5844 61.8622 52.8003 61.8622C52.0162 61.8622 51.3811 62.4986 51.3811 63.2843ZM72.6721 49.4187C71.9146 49.2213 71.1376 49.6746 70.9407 50.4355C70.3819 52.5775 67.6021 54.7392 63.1105 56.5239C62.3814 56.8137 62.0248 57.6403 62.314 58.3709C62.534 58.9291 63.0697 59.2686 63.6338 59.2686C63.8077 59.2686 63.985 59.2366 64.1571 59.1673C69.5872 57.0092 72.8832 54.2379 73.6885 51.1536C73.8855 50.3946 73.4296 49.6178 72.6721 49.4187ZM47.4536 50.0355C47.4536 50.8106 46.8256 51.4398 46.0522 51.4398C45.2681 51.4398 44.633 52.0762 44.633 52.862C44.633 53.6477 45.2681 54.2841 46.0522 54.2841C48.3903 54.2841 50.2919 52.3784 50.2919 50.0355C50.2919 49.2498 49.6569 48.6134 48.8728 48.6134C48.0887 48.6134 47.4536 49.2516 47.4536 50.0355ZM43.3984 40.9535H43.7691C44.5532 40.9535 45.1883 40.3171 45.1883 39.5314C45.1883 38.7457 44.5532 38.1093 43.7691 38.1093H43.3984C42.6143 38.1093 41.9792 38.7457 41.9792 39.5314C41.9792 40.3171 42.6161 40.9535 43.3984 40.9535ZM58.0583 57.2581C59.3586 59.066 60.0469 61.1974 60.0469 63.4212C60.0469 69.2537 55.3122 74 49.4901 74H25.1249C19.3046 74 14.5682 69.2555 14.5682 63.423C14.5682 59.553 16.7075 56.012 20.0284 54.1668C19.5636 53.1144 19.3064 51.9483 19.3064 50.7252C19.3064 47.0046 21.6923 43.8315 25.0114 42.6618C24.2788 41.5988 23.8477 40.31 23.8477 38.9216C23.8477 35.2863 26.7995 32.3283 30.4273 32.3283H44.1878C47.8155 32.3283 50.7674 35.2863 50.7674 38.9216C50.7674 42.5569 47.8155 45.5149 44.1878 45.5149H30.4273C29.5438 45.5149 28.7012 45.339 27.9295 45.0225C27.8976 45.0243 27.8639 45.0261 27.832 45.0261C24.6956 45.0261 22.1447 47.5823 22.1447 50.7252C22.1447 51.9003 22.5013 52.9953 23.1133 53.9037C23.1612 53.9623 23.2055 54.0246 23.2445 54.0903C24.2805 55.5036 25.9516 56.4244 27.832 56.4244H46.7831C49.9194 56.4244 52.4704 53.8681 52.4704 50.7252C52.4704 49.0329 51.7182 47.4348 50.4055 46.3415C49.8023 45.8403 49.7207 44.9425 50.221 44.3381C50.7212 43.7337 51.6171 43.652 52.2202 44.1533C54.1822 45.7887 55.3087 48.1832 55.3087 50.7235C55.3087 55.4342 51.484 59.2668 46.7831 59.2668H27.832C25.3751 59.2668 23.1576 58.2198 21.6001 56.547C19.058 57.8643 17.4065 60.5165 17.4065 63.4212C17.4065 67.6858 20.8692 71.1558 25.1249 71.1558H49.4901C53.7458 71.1558 57.2086 67.6858 57.2086 63.423C57.2086 61.8 56.7065 60.2445 55.7557 58.9238C55.298 58.2874 55.4417 57.3985 56.0768 56.9381C56.7119 56.4777 57.5988 56.6217 58.0583 57.2581ZM26.686 38.9216C26.686 40.989 28.3642 42.6707 30.4273 42.6707H44.1878C46.2509 42.6707 47.929 40.989 47.929 38.9216C47.929 36.8542 46.2509 35.1726 44.1878 35.1726H30.4273C28.3642 35.1726 26.686 36.8542 26.686 38.9216Z" fill="#7A9CA5"/>
</svg>
